<mxfile host="app.diagrams.net" modified="2023-12-14T02:40:40.699Z" agent="Mozilla/5.0 (Macintosh; Intel Mac OS X 10_15_7) AppleWebKit/537.36 (KHTML, like Gecko) Chrome/119.0.0.0 Safari/537.36" etag="w9Nq5X0GA11aW8KJcD-H" version="22.1.8" type="github">
  <diagram id="prtHgNgQTEPvFCAcTncT" name="Page-1">
    <mxGraphModel dx="2074" dy="1063" grid="1" gridSize="10" guides="1" tooltips="1" connect="1" arrows="1" fold="1" page="1" pageScale="1" pageWidth="827" pageHeight="1169" math="0" shadow="0">
      <root>
        <mxCell id="0" />
        <mxCell id="1" parent="0" />
        <mxCell id="dNxyNK7c78bLwvsdeMH5-11" value="TUILiveKit" style="swimlane;html=1;startSize=20;horizontal=1;containerType=tree;glass=0;" parent="1" vertex="1">
          <mxGeometry x="40" y="70" width="760" height="460" as="geometry" />
        </mxCell>
        <mxCell id="YKUUuAs3QgxlzlbzOPTa-2" value="UI" style="swimlane;whiteSpace=wrap;html=1;" vertex="1" parent="dNxyNK7c78bLwvsdeMH5-11">
          <mxGeometry x="40" y="50" width="680" height="360" as="geometry" />
        </mxCell>
        <mxCell id="YKUUuAs3QgxlzlbzOPTa-11" value="TUILiveRoomListFragment" style="rounded=1;whiteSpace=wrap;html=1;" vertex="1" parent="YKUUuAs3QgxlzlbzOPTa-2">
          <mxGeometry x="60" y="60" width="200" height="60" as="geometry" />
        </mxCell>
        <mxCell id="YKUUuAs3QgxlzlbzOPTa-12" value="TUIAudienceFragment" style="rounded=1;whiteSpace=wrap;html=1;" vertex="1" parent="YKUUuAs3QgxlzlbzOPTa-2">
          <mxGeometry x="60" y="160" width="200" height="60" as="geometry" />
        </mxCell>
        <mxCell id="YKUUuAs3QgxlzlbzOPTa-17" value="TUIAnchorFragment" style="rounded=1;whiteSpace=wrap;html=1;" vertex="1" parent="YKUUuAs3QgxlzlbzOPTa-2">
          <mxGeometry x="60" y="260" width="200" height="60" as="geometry" />
        </mxCell>
        <mxCell id="YKUUuAs3QgxlzlbzOPTa-18" value="组件" style="swimlane;whiteSpace=wrap;html=1;" vertex="1" parent="YKUUuAs3QgxlzlbzOPTa-2">
          <mxGeometry x="410" y="60" width="240" height="260" as="geometry" />
        </mxCell>
        <mxCell id="YKUUuAs3QgxlzlbzOPTa-19" value="弹幕" style="rounded=1;whiteSpace=wrap;html=1;" vertex="1" parent="YKUUuAs3QgxlzlbzOPTa-18">
          <mxGeometry x="20" y="40" width="90" height="40" as="geometry" />
        </mxCell>
        <mxCell id="YKUUuAs3QgxlzlbzOPTa-20" value="礼物" style="rounded=1;whiteSpace=wrap;html=1;" vertex="1" parent="YKUUuAs3QgxlzlbzOPTa-18">
          <mxGeometry x="134" y="40" width="90" height="40" as="geometry" />
        </mxCell>
        <mxCell id="YKUUuAs3QgxlzlbzOPTa-21" value="美颜" style="rounded=1;whiteSpace=wrap;html=1;" vertex="1" parent="YKUUuAs3QgxlzlbzOPTa-18">
          <mxGeometry x="20" y="100" width="90" height="40" as="geometry" />
        </mxCell>
        <mxCell id="YKUUuAs3QgxlzlbzOPTa-22" value="音效" style="rounded=1;whiteSpace=wrap;html=1;" vertex="1" parent="YKUUuAs3QgxlzlbzOPTa-18">
          <mxGeometry x="134" y="100" width="90" height="40" as="geometry" />
        </mxCell>
      </root>
    </mxGraphModel>
  </diagram>
</mxfile>
